PathFileType	4	(X/Y/Z)	C:\Users\Basilio\Documents\Thesis Gigler\squatting_fais\c3dfiles\039\SJ_pre1\markers_experimental.trc
DataRate	CameraRate	NumFrames	NumMarkers	Units	OrigDataRate	OrigDataStartFrame	OrigNumFrames
200.000000	200.000000	4	61	mm	200.000000	0	1858
Frame#	Time	FHD			LBHD			RBHD			C7			T10			CLAV			LSHO			LUUPA			LMUPA			LDUPA			LLEP			LMEP			LRAD			LUL			LRFIN			RSHO			RUPA1			RMUPA			RDUPA			RLEP			RMEP			RRAD			RUL			RUFIN			LASI			RASI			USACR			LSACR			RSACR			LTHI1			LTHI2			LTHI3			LTHI4			LLFC			LMFC			LTIB1			LTIB2			LTIB3			LTIB4			LLMAL			LMMAL			LHEE			LMT1			LMT2			LMT5			RTHI			RTHI2			RTHI3			RTHI4			RLFC			RMFC			RTIB1			RTIB2			RTIB3			RTIB4			RLMAL			RMMAL			RHEE			RMT1			RMT2			RMT5			
		X1	Y1	Z1	X2	Y2	Z2	X3	Y3	Z3	X4	Y4	Z4	X5	Y5	Z5	X6	Y6	Z6	X7	Y7	Z7	X8	Y8	Z8	X9	Y9	Z9	X10	Y10	Z10	X11	Y11	Z11	X12	Y12	Z12	X13	Y13	Z13	X14	Y14	Z14	X15	Y15	Z15	X16	Y16	Z16	X17	Y17	Z17	X18	Y18	Z18	X19	Y19	Z19	X20	Y20	Z20	X21	Y21	Z21	X22	Y22	Z22	X23	Y23	Z23	X24	Y24	Z24	X25	Y25	Z25	X26	Y26	Z26	X27	Y27	Z27	X28	Y28	Z28	X29	Y29	Z29	X30	Y30	Z30	X31	Y31	Z31	X32	Y32	Z32	X33	Y33	Z33	X34	Y34	Z34	X35	Y35	Z35	X36	Y36	Z36	X37	Y37	Z37	X38	Y38	Z38	X39	Y39	Z39	X40	Y40	Z40	X41	Y41	Z41	X42	Y42	Z42	X43	Y43	Z43	X44	Y44	Z44	X45	Y45	Z45	X46	Y46	Z46	X47	Y47	Z47	X48	Y48	Z48	X49	Y49	Z49	X50	Y50	Z50	X51	Y51	Z51	X52	Y52	Z52	X53	Y53	Z53	X54	Y54	Z54	X55	Y55	Z55	X56	Y56	Z56	X57	Y57	Z57	X58	Y58	Z58	X59	Y59	Z59	X60	Y60	Z60	X61	Y61	Z61	

1	0	-181.6826477050782	1762.084838867188	-819.6944580078127	-325.1385192871094	1716.117797851563	-952.2503051757815	-310.6565246582032	1726.34228515625	-812.106140136719	-368.5779724121094	1573.003540039063	-894.1297607421877	-394.1417541503907	1253.1533203125	-906.4990844726565	-231.7255096435547	1492.05615234375	-890.3610839843752	-280.1583557128907	1549.58349609375	-1080.079833984375	-384.8399353027345	1426.615600585938	-1242.577758789063	-351.4965820312501	1389.47314453125	-1247.7607421875	-394.4993896484376	1373.968872070313	-1287.694458007813	-397.1340332031251	1308.2021484375	-1317.82275390625	-473.7678222656251	1296.862915039063	-1271.71923828125	-378.3613586425782	1087.641235351563	-1127.043823242188	-339.8391113281251	1059.394409179688	-1186.416870117188	-318.9522094726563	1088.015625	-1086.254638671875	-275.9690856933594	1533.252075195313	-698.6848144531251	-404.6211547851564	1419.193725585938	-554.8367309570314	-375.4541625976563	1380.79052734375	-540.8932495117189	-426.0276184082032	1368.566528320313	-510.9632568359376	-424.5998840332032	1303.182495117188	-480.7947692871095	-498.5741271972657	1292.038696289063	-530.2572631835939	-368.5109252929688	1106.031860351563	-697.4645385742189	-358.3637390136719	1057.60107421875	-640.0156860351564	-305.4411926269532	1088.338134765625	-733.0364379882814	-223.1404876708985	1060.369384765625	-1016.288452148438	-229.3953094482422	1041.452026367188	-798.6628417968752	-406.8698730468751	1124.604736328125	-905.248474121094	-412.876434326172	1094.218383789063	-934.780212402344	-413.7021789550782	1091.885131835938	-875.7805175781252	-304.1213684082032	792.239929199219	-1107.49072265625	-272.5766906738282	713.8984985351564	-1112.75048828125	-224.4590148925782	716.2949218750001	-1104.373901367188	-300.4055480957032	660.7057495117189	-1100.299926757813	-302.4686584472657	538.0957641601564	-1103.732299804688	-266.4987792968751	505.9211425781251	-993.504333496094	-251.2910766601563	386.9317016601564	-1094.156372070313	-314.6567993164063	357.5572814941407	-1140.765014648438	-295.5234069824219	338.3860473632813	-1108.347900390625	-281.6850585937501	262.6239929199219	-1086.30810546875	-355.1232604980469	99.58930969238284	-1121.7783203125	-328.3917541503907	95.07253265380861	-1038.958374023438	-416.4143981933595	40.98867797851563	-1080.661743164063	-181.3732299804688	55.73271560668947	-1091.046997070313	-192.8716278076172	54.67491531372072	-1133.300415039063	-242.6297760009766	31.68605613708497	-1179.57275390625	-288.8384704589844	787.4549560546877	-709.3981933593751	-245.5761871337891	737.0939331054689	-701.1769409179689	-214.2308654785157	741.8776245117189	-707.2427978515626	-267.7102050781251	654.1882324218751	-703.6254272460939	-291.2132568359376	514.4940795898439	-716.8881835937501	-246.4976959228516	491.6696166992189	-824.5420532226565	-263.0192260742188	303.0905456542969	-703.1968994140626	-352.4761352539063	243.7436828613282	-692.1336059570314	-307.1306457519532	232.8427276611329	-687.5130615234376	-290.4815673828126	179.7766571044922	-712.2936401367189	-362.8720703125001	92.34909820556642	-682.3856811523439	-327.4678039550782	98.10034179687503	-766.0550537109376	-424.3178710937501	40.75999069213868	-730.2156982421876	-190.4286651611328	50.95122528076173	-710.3499145507814	-200.4421691894532	56.56825256347658	-665.5714111328126	-256.4966430664063	30.43299293518067	-617.2710571289064	
2	0.005	-181.8744812011719	1762.454345703125	-819.7469482421877	-325.1869201660157	1715.7021484375	-952.257995605469	-310.7793579101563	1726.0654296875	-812.0604248046877	-368.5104980468751	1572.95458984375	-894.1397094726565	-394.0582580566407	1253.131591796875	-906.5083618164065	-231.7049255371094	1492.0048828125	-890.3374023437502	-280.1190490722657	1549.589721679688	-1080.067993164063	-384.931365966797	1426.62744140625	-1242.56787109375	-351.5385131835938	1389.457397460938	-1247.723876953125	-394.5150146484376	1373.936889648438	-1287.686889648438	-397.1699523925782	1308.20361328125	-1317.82275390625	-473.8052673339845	1296.862548828125	-1271.651000976563	-378.3592529296876	1087.622314453125	-1127.07177734375	-339.7004394531251	1059.403564453125	-1186.41796875	-318.9229431152344	1088.001708984375	-1086.298217773438	-276.0220031738282	1533.191528320313	-698.6785278320314	-404.7324218750001	1419.090942382813	-554.8845825195314	-375.5501098632813	1380.710693359375	-540.9116210937501	-426.0505981445314	1368.491455078125	-510.9583129882814	-424.6273193359376	1303.122192382813	-480.8205566406251	-498.6587219238282	1291.932983398438	-530.3381958007814	-368.4638366699219	1106.014404296875	-697.5043334960939	-358.3363342285157	1057.5419921875	-640.0372924804689	-305.3755187988282	1088.291381835938	-733.0785522460939	-222.9840393066407	1060.345092773438	-1016.287231445313	-229.3531036376954	1041.464233398438	-798.6939697265627	-406.7758178710939	1124.607177734375	-905.254089355469	-412.7658691406251	1094.191650390625	-934.782165527344	-413.6153564453126	1091.860717773438	-875.7876586914065	-304.0614929199219	792.2652587890627	-1107.540405273438	-272.4598083496094	713.8929443359376	-1112.729614257813	-224.376449584961	716.2807617187501	-1104.386474609375	-300.2938537597657	660.7528076171876	-1100.323608398438	-302.3520202636719	538.0574951171876	-1103.717407226563	-266.4203796386719	505.9413146972657	-993.5485839843752	-251.2371368408204	386.9333801269532	-1094.135375976563	-314.6612548828126	357.5858764648438	-1140.779541015625	-295.4747314453126	338.3034362792969	-1108.271850585938	-281.6659851074219	262.6119079589844	-1086.288208007813	-355.1580200195313	99.60636138916018	-1121.77685546875	-328.3828125000001	95.07192230224611	-1038.968383789063	-416.4143981933595	40.98867797851563	-1080.661743164063	-181.3654022216797	55.75425720214845	-1091.061645507813	-192.8408813476563	54.68914031982423	-1133.325927734375	-242.6123504638672	31.70956993103028	-1179.580078125	-288.7610778808594	787.4343872070315	-709.4323730468751	-245.4787597656251	737.0872192382814	-701.1854858398439	-214.1457824707032	741.8619384765626	-707.2717285156251	-267.9427490234376	653.7815551757814	-703.7064819335939	-291.2034912109376	514.4816284179689	-716.9221801757814	-246.4142761230469	491.7139892578126	-824.5302734375002	-263.0011901855469	303.0955505371094	-703.1735229492189	-352.4114990234376	243.681137084961	-692.1343994140626	-307.1161193847657	232.8532104492188	-687.5410766601564	-290.4815673828126	179.7766418457032	-712.2936401367189	-362.8989868164063	92.3588104248047	-682.4011840820314	-327.4815368652344	98.07995605468753	-766.0756225585939	-424.3178710937501	40.75999069213868	-730.2156982421876	-190.4419555664063	50.95269775390626	-710.3876342773439	-200.4423065185547	56.56901931762697	-665.5707397460939	-256.4783325195313	30.43389892578126	-617.2508544921876	
3	0.01	-182.1511840820313	1762.949584960938	-819.9131469726565	-325.1675720214844	1715.171752929688	-952.251403808594	-311.1911926269532	1726.179443359375	-812.0301513671877	-368.5144958496094	1572.935424804688	-894.137145996094	-393.9577026367189	1253.13134765625	-906.5222778320315	-231.7723236083985	1491.980102539063	-890.328796386719	-280.1071166992188	1549.582763671875	-1080.0458984375	-384.9284973144532	1426.591918945313	-1242.531616210938	-351.5922851562501	1389.474853515625	-1247.724975585938	-394.610321044922	1373.933227539063	-1287.633911132813	-397.193817138672	1308.1982421875	-1317.787841796875	-473.8389282226564	1296.832641601563	-1271.661865234375	-378.2722778320313	1087.631103515625	-1127.066040039063	-339.6401672363282	1059.423461914063	-1186.454711914063	-318.8505249023438	1087.980346679688	-1086.304443359375	-276.2838439941407	1533.346557617188	-698.2081909179689	-404.7854614257814	1419.031982421875	-554.9301757812501	-375.5838012695313	1380.6748046875	-540.9167480468751	-426.1358947753907	1368.399291992188	-510.972869873047	-424.7271728515626	1303.052856445313	-480.8817749023439	-498.716033935547	1291.856323242188	-530.3939819335939	-368.4531860351563	1105.970458984375	-697.5371704101564	-358.3502807617188	1057.528442382813	-640.0969848632814	-305.3381652832032	1088.248901367188	-733.0573120117189	-222.9840393066407	1060.345092773438	-1016.287231445313	-229.2863159179688	1041.459716796875	-798.6677246093752	-406.7196350097657	1124.610473632813	-905.280700683594	-412.7095947265626	1094.192016601563	-934.8081665039065	-413.5369873046876	1091.86376953125	-875.8313598632815	-303.9746398925782	792.2191162109377	-1107.551147460938	-272.4209289550782	713.8758544921876	-1112.754272460938	-224.8720703125001	716.6355590820314	-1104.518920898438	-300.1733703613282	660.7021484375001	-1100.318359375	-302.3355102539063	538.0560302734376	-1103.696533203125	-266.3500366210938	505.9335327148439	-993.5034179687502	-251.2858581542969	387.0968322753907	-1094.278198242188	-323.8392028808594	352.5209350585938	-1132.63623046875	-282.7915649414063	344.9536437988282	-1119.632446289063	-281.6326904296876	262.6109313964844	-1086.299194335938	-355.1101074218751	99.57236480712893	-1121.779296875	-328.3919677734376	95.10414123535158	-1038.964477539063	-416.2529296875001	41.42428588867188	-1080.69775390625	-181.3887329101563	55.76405334472658	-1091.054809570313	-193.1773223876954	54.31257629394533	-1132.809204101563	-242.3825073242188	31.70417785644532	-1179.750854492188	-288.7563476562501	787.450622558594	-709.4545288085939	-245.4176330566407	737.0858154296876	-701.2126464843751	-214.1146545410157	741.8587646484376	-707.2868041992189	-267.6221313476563	654.1635742187501	-703.5980834960939	-291.1433410644532	514.4911499023439	-716.9048461914064	-246.4091949462891	491.6971740722657	-824.5739746093752	-262.9598083496094	303.0909118652344	-703.1773681640626	-352.4523925781251	243.750228881836	-692.1391601562501	-307.1078796386719	232.8353881835938	-687.5503540039064	-290.4462890625001	179.7782440185547	-712.3081054687501	-362.8653564453126	92.35816192626955	-682.3881225585939	-327.4463195800782	98.11118316650393	-766.0718383789064	-424.3353881835939	40.76771545410157	-730.1959228515626	-190.412582397461	50.96118545532228	-710.3737182617189	-200.4423370361329	56.56923675537111	-665.5705566406251	-256.4840087890626	30.44797706604005	-617.2323608398439	
4	0.015	-182.5930328369141	1763.567138671875	-819.879089355469	-325.1438598632813	1714.588134765625	-952.2661132812502	-311.4040527343751	1725.815673828125	-812.0410156250002	-368.4526977539063	1572.91259765625	-894.0596313476565	-392.545867919922	1253.379028320313	-905.9283447265627	-231.7984313964844	1491.976196289063	-890.3509521484377	-280.0987243652344	1549.558959960938	-1080.0439453125	-384.9888610839845	1426.591430664063	-1242.492431640625	-351.5866088867188	1389.489990234375	-1247.724975585938	-394.6102294921876	1373.933471679688	-1287.633911132813	-397.2620239257814	1308.180419921875	-1317.799072265625	-474.3843688964845	1296.880737304688	-1271.870483398438	-378.1750183105469	1087.606201171875	-1127.080078125	-339.5888061523438	1059.400390625	-1186.461303710938	-318.7731933593751	1087.953247070313	-1086.32421875	-276.0523376464844	1533.049682617188	-698.6309814453126	-405.2467651367189	1418.582885742188	-555.2105712890626	-375.6390075683594	1380.6240234375	-540.9575805664064	-426.2066955566407	1368.3310546875	-511.0281066894532	-424.8041076660157	1302.98095703125	-480.9139404296876	-498.7824096679689	1291.768432617188	-530.4476318359376	-368.3951416015626	1105.921264648438	-697.5369262695314	-358.3233337402344	1057.478149414063	-640.1088867187501	-305.2808227539063	1088.251220703125	-733.0875244140626	-222.9100646972657	1060.286743164063	-1016.328796386719	-229.2216491699219	1041.435913085938	-798.7009277343752	-406.6887207031251	1124.619262695313	-905.3070068359377	-412.6388549804689	1094.188354492188	-934.851745605469	-413.4489746093751	1091.835815429688	-875.8377685546877	-303.8459777832032	792.2025146484377	-1107.5390625	-272.2869567871094	713.8693847656251	-1112.769897460938	-224.8172912597657	716.6296997070314	-1104.544067382813	-300.1234436035157	660.7078857421876	-1100.324096679688	-302.2665405273438	538.0654907226564	-1103.71142578125	-266.2667236328126	505.9315795898439	-993.5427856445315	-251.2122650146485	387.0690002441407	-1094.276611328125	-323.7567749023438	352.4778442382813	-1132.658935546875	-282.7418823242188	344.9652099609376	-1119.632934570313	-281.5650024414063	262.5716552734376	-1086.27392578125	-355.1855773925782	99.07775878906253	-1121.894287109375	-328.3733520507813	95.08762359619142	-1038.97216796875	-416.4298095703126	40.98923492431641	-1080.674072265625	-181.3825225830078	55.72605514526369	-1091.047119140625	-193.1366424560547	54.31127548217775	-1132.859497070313	-242.4003906250001	31.70544624328614	-1179.782470703125	-288.6544189453126	787.437194824219	-709.4679565429689	-245.3983306884766	737.1143798828126	-701.2480468750001	-214.0831146240235	741.8164062500001	-707.2658081054689	-267.5675048828126	654.1614990234376	-703.6431884765626	-291.1148986816407	514.5004882812501	-716.9180908203126	-246.3963623046876	491.6745910644532	-824.5730590820315	-262.9384460449219	303.0942077636719	-703.1860961914064	-352.4512939453126	243.7414703369141	-692.1676025390626	-307.0756530761719	232.8308868408204	-687.5598144531251	-290.4395446777344	179.7600402832032	-712.3034667968751	-362.8564453125001	92.37285614013673	-682.3912963867189	-327.4301452636719	98.12917327880862	-766.0752563476564	-424.3051757812501	40.74656677246094	-730.1936035156251	-190.4176330566407	50.95378494262697	-710.3781127929689	-200.4324035644532	56.54981613159181	-665.5698852539064	-256.4695129394532	30.42063713073731	-617.2504882812501	
